<svg version="1.1" xmlns="http://www.w3.org/2000/svg" xmlns:xlink="http://www.w3.org/1999/xlink" width="660" height="284"><defs/><g><g transform="translate(-46,-118) scale(1,1)"><rect fill="#C0C0C0" stroke="none" x="175" y="135" width="528" height="264" opacity="0.2"/></g><g transform="translate(-46,-118) scale(1,1)"><rect fill="#ffffff" stroke="none" x="168" y="128" width="528" height="264"/></g><g transform="translate(-46,-118) scale(1,1)"><path fill="none" stroke="#000000" d="M 168 128 L 696 128 L 696 392 L 168 392 L 168 128 Z Z" stroke-miterlimit="10"/></g><g transform="translate(-46,-118) scale(1,1)"><g><path fill="none" stroke="none"/><text fill="#000000" stroke="none" font-family="Arial" font-size="13px" font-style="normal" font-weight="bold" text-decoration="none" x="415.3818359375" y="146">UC21</text></g></g><g transform="translate(-46,-118) scale(1,1)"><path fill="#ffffff" stroke="none" d="M 72.40935031960227 193.68 C 72.40935031960227 188.886167936 76.29519264454773 185 81.088623046875 185 C 85.88205344920227 185 89.76789577414773 188.886167936 89.76789577414773 193.68 C 89.76789577414773 198.47383206400002 85.88205344920227 202.36 81.088623046875 202.36 C 76.29519264454773 202.36 72.40935031960227 198.47383206400002 72.40935031960227 193.68 Z"/></g><g transform="translate(-46,-118) scale(1,1)"><path fill="none" stroke="#000000" d="M 72.40935031960227 193.68 C 72.40935031960227 188.886167936 76.29519264454773 185 81.088623046875 185 C 85.88205344920227 185 89.76789577414773 188.886167936 89.76789577414773 193.68 C 89.76789577414773 198.47383206400002 85.88205344920227 202.36 81.088623046875 202.36 C 76.29519264454773 202.36 72.40935031960227 198.47383206400002 72.40935031960227 193.68 Z" stroke-miterlimit="10"/></g><g transform="translate(-46,-118) scale(1,1)"><path fill="none" stroke="#000000" d="M 81.088623046875 202.36 L 81.088623046875 219.64" stroke-miterlimit="10"/></g><g transform="translate(-46,-118) scale(1,1)"><path fill="none" stroke="#000000" d="M 71.89880486505682 208.84 L 90.27844122869318 208.84" stroke-miterlimit="10"/></g><g transform="translate(-46,-118) scale(1,1)"><path fill="none" stroke="#000000" d="M 81.088623046875 219.64 L 68.32498668323863 237" stroke-miterlimit="10"/></g><g transform="translate(-46,-118) scale(1,1)"><path fill="none" stroke="#000000" d="M 81.088623046875 219.64 L 93.85225941051137 237" stroke-miterlimit="10"/></g><g transform="translate(-46,-118) scale(1,1)"><g><path fill="none" stroke="none"/><text fill="#000000" stroke="none" font-family="Arial" font-size="13px" font-style="normal" font-weight="bold" text-decoration="none" x="60.8681640625" y="256">Admin</text></g></g><g transform="translate(-46,-118) scale(1,1)"><path fill="#C0C0C0" stroke="none" d="M 231 200 C 231 190.6111584 303.75372 183 393.5 183 C 483.24628 183 556 190.6111584 556 200 C 556 209.3888416 483.24628 217 393.5 217 C 303.75372 217 231 209.3888416 231 200 Z" opacity="0.2"/></g><g transform="translate(-46,-118) scale(1,1)"><path fill="#ffffff" stroke="none" d="M 224 193 C 224 183.6111584 296.75372 176 386.5 176 C 476.24628 176 549 183.6111584 549 193 C 549 202.3888416 476.24628 210 386.5 210 C 296.75372 210 224 202.3888416 224 193 Z"/></g><g transform="translate(-46,-118) scale(1,1)"><path fill="none" stroke="#000000" d="M 224 193 C 224 183.6111584 296.75372 176 386.5 176 C 476.24628 176 549 183.6111584 549 193 C 549 202.3888416 476.24628 210 386.5 210 C 296.75372 210 224 202.3888416 224 193 Z" stroke-miterlimit="10"/></g><g transform="translate(-46,-118) scale(1,1)"><g><path fill="none" stroke="none"/><text fill="#000000" stroke="none" font-family="Arial" font-size="13px" font-style="normal" font-weight="bold" text-decoration="none" x="275.965087890625" y="198.5">UC21.1 Inserimento nome categoria</text></g></g><g transform="translate(-46,-118) scale(1,1)"><path fill="#C0C0C0" stroke="none" d="M 311 328 C 311 318.6111584 377.4857072 311 459.5 311 C 541.5142928 311 608 318.6111584 608 328 C 608 337.3888416 541.5142928 345 459.5 345 C 377.4857072 345 311 337.3888416 311 328 Z" opacity="0.2"/></g><g transform="translate(-46,-118) scale(1,1)"><path fill="#ffffff" stroke="none" d="M 304 321 C 304 311.6111584 370.4857072 304 452.5 304 C 534.5142928 304 601 311.6111584 601 321 C 601 330.3888416 534.5142928 338 452.5 338 C 370.4857072 338 304 330.3888416 304 321 Z"/></g><g transform="translate(-46,-118) scale(1,1)"><path fill="none" stroke="#000000" d="M 304 321 C 304 311.6111584 370.4857072 304 452.5 304 C 534.5142928 304 601 311.6111584 601 321 C 601 330.3888416 534.5142928 338 452.5 338 C 370.4857072 338 304 330.3888416 304 321 Z" stroke-miterlimit="10"/></g><g transform="translate(-46,-118) scale(1,1)"><g><path fill="none" stroke="none"/><text fill="#000000" stroke="none" font-family="Arial" font-size="13px" font-style="normal" font-weight="bold" text-decoration="none" x="352.070556640625" y="326.5">UC21.1.1 Categoria già esistente</text></g></g><g transform="translate(-46,-118) scale(1,1)"><path fill="none" stroke="#000000" d="M 107 220 L 223 209" stroke-miterlimit="10"/></g><g transform="translate(-46,-118) scale(1,1)"><path fill="none" stroke="#000000" d="M 443 303 L 395 211" stroke-miterlimit="10" stroke-dasharray="3"/></g><g transform="translate(-46,-118) scale(1,1)"><path fill="none" stroke="#000000" d="M 403.4330025783793 218.06289370676416 L 395 211 L 395.9688132740829 221.95725334378835" stroke-miterlimit="10"/></g><g transform="translate(-46,-118) scale(1,1)"><g><path fill="none" stroke="none"/><text fill="#000000" stroke="none" font-family="Arial" font-size="13px" font-style="normal" font-weight="normal" text-decoration="none" x="365.5" y="275">«extend»</text></g></g><g transform="translate(-46,-118) scale(1,1)"><path fill="#ffffff" stroke="none" d="M 520 216 L 677 216 L 687 226 L 687 271 L 520 271 L 520 216"/></g><g transform="translate(-46,-118) scale(1,1)"><path fill="none" stroke="#000000" d="M 520 216 L 677 216 L 687 226 L 687 271 L 520 271 L 520 216 L 520 216" stroke-miterlimit="10"/></g><g transform="translate(-46,-118) scale(1,1)"><path fill="none" stroke="#000000" d="M 677 216 L 677 226 L 687 226 L 677 216" stroke-miterlimit="10"/></g><g transform="translate(-46,-118) scale(1,1)"><g><path fill="none" stroke="none"/><text fill="#000000" stroke="none" font-family="Arial" font-size="13px" font-style="normal" font-weight="normal" text-decoration="none" x="525" y="231">Il nome della categoria</text><text fill="#000000" stroke="none" font-family="Arial" font-size="13px" font-style="normal" font-weight="normal" text-decoration="none" x="525" y="244">inserito è già esistente</text></g></g><g transform="translate(-46,-118) scale(1,1)"><path fill="none" stroke="#000000" d="M 519 250 L 419 257" stroke-miterlimit="10" stroke-dasharray="3"/></g></g></svg>